<svg xmlns="http://www.w3.org/2000/svg" viewBox="0 0 211.89 112.17"><defs><style>.cls-1{fill:#517bbe;}.cls-2{fill:#fff;}</style></defs><g id="Layer_2" data-name="Layer 2"><g id="Layer_1-2" data-name="Layer 1"><path class="cls-1" d="M31.44,101.66l-3,3a3,3,0,0,0-3.19.63c-2.21,2.42-4.5,2.17-6.88.3-3.83-3.53-5.17-8.66-2.13-12.12,3.22-3.68,1.47-6-.77-8.79-3.22-1.19-3.28-3.38-1.91-6a20.87,20.87,0,0,0,2.53-7.84,2.47,2.47,0,0,1,1.74-2.52c1.8-.25,2.76.9,3.44,2.28s1.83,1.15,3,1a4.88,4.88,0,0,0,2.05-1.45c.46-.51.75-1.14,1.21-1.66.91-.89,1.65-2,3-2.22,3.45-.33,4.09,3,6.08,4.63,3.1,3.35.64,6.52-.3,9.73,0,4.83-4.35,6.22-7,9a6.59,6.59,0,0,0-3,5,6,6,0,0,0-.05,2.52c.4,1.88,1.87,1.26,3.07,1.37C31.4,98.66,32.63,99.4,31.44,101.66Z"/><path class="cls-1" d="M31.44,101.66c-1.68-.48-3.37-1-5.05-1.44s-3.34-1.3-3-3.62c2.93-.85,2.85-3.88,4.23-5.86,3.22-2.57,6.38-5.35,10.5-6.28,2.7-.61,2.68-3.07,3.94-4.65a2.46,2.46,0,0,1,1.22-.6c1.7.5,3.45.86,5.21,1.22a2.85,2.85,0,0,1,1.25,2.63c0,3.58-3.91,6-2.95,9.84a2.19,2.19,0,0,1-.43,1.39c-2.68,1.39-6.58.43-8.07,4.15Z"/><path class="cls-1" d="M58.34,36.77l.16,1.75c.47,1.17,1.12.88,1.81.22,1.1-2,2.55-3.51,5.12-2.93,1.94.44,2.61,1.91,3.8,3.41,4.9,6.14-1.66,6.38-3.79,8.88-2.45-3.14-4.89-2.56-7.32,0-1.72.37-2.83-.76-4-1.66a3.07,3.07,0,0,0-1.86.23,2.74,2.74,0,0,1-2.78-.12c-2.06-2.26-4.35-4.45-2.15-7.87.53-1.6,2.21-2.41,2.76-4a3.65,3.65,0,0,1,1.79-1.4C54.94,32.7,57,34.06,58.34,36.77Z"/><path class="cls-1" d="M45.35,93.61v-1c.93-.7,1.07-2.22,2.5-2.4,4.27,1.15,6.51-1.67,8.77-4.49a2.36,2.36,0,0,1,1.44,0,3.1,3.1,0,0,1,1.18,1.86c.4,3.34,1.41,6.62,1,10-2.43,6.44-7.72,5.4-12.81,4.89a7.94,7.94,0,0,1-3.94-4C44.13,96.91,42.65,94.47,45.35,93.61Z"/><path class="cls-1" d="M3.24,50.88c-.31-.38-1-.88-.89-1.12,2.24-6.47-1.29-13.89,3.25-20C7.39,28.4,8.45,29.21,9.18,31c0,2.21-1.24,5.28,3.12,4.41,3.19.42,4.22,3,5,5.46.59,1.81-1.31,2.34-2.69,2.85a6.57,6.57,0,0,0-2.41.36,3.37,3.37,0,0,1,2.66,0,3,3,0,0,1,1,2.69c-.16,4-3,4.93-6.12,4.82A26.24,26.24,0,0,1,3.24,50.88Z"/><path class="cls-1" d="M10.11,23.71l1.1-1c1.86-.72,3.43-2.29,5.81-1.34,1.58.64,1.83-.78,1.9-2,2-3.4,5-4.13,7.63-1.61a11,11,0,0,1,2.11,2.68,5.33,5.33,0,0,1,.19,1.32,15.67,15.67,0,0,0-1.12,7.69c-.72,2.25-2.54,3.42-4.46,4.48-1.46.27-2.65-.63-4-.92a4.66,4.66,0,0,0-2.64.48c-4.15,1.93-5.55-1.19-7.21-3.89C8.85,27.55,10.94,25.81,10.11,23.71Z"/><path class="cls-1" d="M52.33,34.76l-1,.94a1.37,1.37,0,0,1-1.91-.06,3,3,0,0,1-.49-2.74c1.31-3.66-.29-5.77-3.55-7.1-1.29-.57-2.7-.42-4.05-.7-1.06-.62-2.12-1.71-1.38-2.71,1.84-2.48-.16-4.11-.88-6a1.79,1.79,0,0,1,1.31-1.62c3.95-1.78,6.91-.48,9.17,3,.14,1.06,1.3.51,1.74,1.1,2.23,4.59,5.88,8.1,9.13,11.91C58.71,34.05,54.67,32.69,52.33,34.76Z"/><path class="cls-1" d="M15.44,78.65q0,3,0,6.06c-4.91,1.65-10.2,1.88-15,4a1.32,1.32,0,0,1,0-2A11.85,11.85,0,0,0,7.7,79.43c.54-1.52,2.33-2.6,3.55-3.87C13.89,74.9,15.61,75.49,15.44,78.65Z"/><path class="cls-1" d="M47.41,102.53c2.05-2,4.71-1.87,7.28-2.08,2.23-.18,3.82-1.61,5.53-2.81-.89,4.13-2.89,8.18-.74,12.51.37.75.26,1.76-.82,1.95a3.58,3.58,0,0,1-3.81-1.77C53.13,106.92,49.9,105.11,47.41,102.53Z"/><path class="cls-1" d="M48.34,91.62l-3,1c-.93-3.63,1.45-6.17,3-9,2.52-2,7.1-.16,8.26-4.57a31.55,31.55,0,0,0,1.35-3.42,2.59,2.59,0,0,1,2-1.35c2.64.52,5.69-.23,7.63,2.48-5.14.78-6.4,4.66-7.18,8.94-1,.5-2.13.35-3.08.92h0A42.75,42.75,0,0,1,48.34,91.62Z"/><path class="cls-1" d="M72.49,60.7c.54,3.41,5.29,6.45.93,10.31-4.93,5-7.46,5.53-11.43,2.17a8.51,8.51,0,0,1-.17-1.5A16.86,16.86,0,0,1,62,68a16.11,16.11,0,0,0,6.9-7.83C70.22,59.47,71.49,59.22,72.49,60.7Z"/><path class="cls-1" d="M27.4,20.79c-2.57-1.13-5-3.3-8-1-.26.58-.53.55-.79,0l-1-2.11c.67-1.3-.32-3.2,1.48-4.07,4.25,0,8.41-2,12.74-.64,1.22.23,2.47.37,3.69.65l2.93.48c1.64.62,1.21,1.65.53,2.72-.88.8-1.44,1.91-2.46,2.57a5.18,5.18,0,0,1-1.94.92C32.21,20.64,29.86,21.61,27.4,20.79Z"/><path class="cls-1" d="M24.43,84.81v2c-3.87,2.23-7.74,4.45-11.59,6.71-2.13,1.25-3.64.19-4.5-1.53-1-2.08,1.06-2.57,2.31-3C15.21,87.52,19.83,86.2,24.43,84.81Z"/><path class="cls-1" d="M15.49,63.51l-4-1.9c-1.6-1.86-1.06-3.77.08-5.52a10.89,10.89,0,0,0,1.63-4.32,2.85,2.85,0,0,1,1.05-1.21c1.55-.43,3-1.33,4.74-.82,1.42,1.21,3.2,2.17,2.92,4.48-.48,1.9-1.62,3.79-.11,5.72,1,2.29,1.1,4.1-2.2,4.05C18.22,63.71,16.93,63,15.49,63.51Z"/><path class="cls-1" d="M64.29,51.76l.18,2.69c0,.24-.06.49-.1.74C62.63,57.26,60.57,59,59,61.28c-1.21,1.74-3.09,3.59-5.77,1.85-1.71-2.65-4.79-4.53-4.66-8.23,2.08-3.41,6.18-2.33,9-4C60,50.25,62.33,49.52,64.29,51.76Z"/><path class="cls-1" d="M15.44,78.65l-4.19-3.09c1.68-1.08,3.18-2.15,3.26-4.54a7.55,7.55,0,0,1,3.81-6,1.11,1.11,0,0,1,0-1.51c2.08.29,5-.32,4,3.46-1,1.41-2.57,1.88-3.92,2.73C17.32,72.63,17.28,75.94,15.44,78.65Z"/><path class="cls-1" d="M72.49,60.7l-2.22,2c-.87.32-1.9.33-2.4,1.36-1.51,3.11-3.11,1.8-4.71.07a3.65,3.65,0,0,1,0-2.81,11.74,11.74,0,0,0,.58-2.69c.55-1.52,1.9-2.42,2.86-3.62l.63-.21C71.11,54.88,73.31,56.45,72.49,60.7Z"/><path class="cls-1" d="M18.36,105.62a9.71,9.71,0,0,0,5-1.91c1.94-1.28,3.72-1.09,5.08,1-1,1.48-1.69,3.11-3.53,3.85C21.66,109.82,18.67,110.81,18.36,105.62Z"/><path class="cls-1" d="M63.29,72.66C67.18,75.28,70,71.36,73.41,71a8,8,0,0,1-5.83,5.77L59.3,75.65a2.16,2.16,0,0,1-.84-1.59C59.37,71.18,61,70.68,63.29,72.66Z"/><path class="cls-1" d="M10.11,23.71c4,.76,1.7,3.17,1.34,5.07.81.91.37,2,.54,3.06-1.92,4.62-3.72,2.26-5.52-.08a1.7,1.7,0,0,0-.87-2C5.64,26.68,8.63,25.76,10.11,23.71Z"/><path class="cls-1" d="M64.29,51.76l-7,1c-3.43-1.39-8.08-.22-10-4.81a2.31,2.31,0,0,1,.44-1.55,2.25,2.25,0,0,1,1.5-.58c2.59.27,5.22.3,7.64,1.43a2.88,2.88,0,0,0,1.89.16c5-2.12,5-2.13,5.69,3.48A2.61,2.61,0,0,1,64.29,51.76Z"/><path class="cls-1" d="M3.24,50.88c1.68-1.53,3.67-1.19,5.67-1,2.56.27,4.61-.51,5.54-3.15A2.7,2.7,0,0,1,15.93,46a2,2,0,0,1,1.81,1.49c.38,2.56-1.74,3.17-3.3,4.22v0c-1.34,2.33-2.74,4.39-5.24,1.07C6.93,53.05,4.76,53,3.24,50.88Z"/><path class="cls-1" d="M45.35,93.61a6.27,6.27,0,0,1-1.88,4.93c-1.7-1.13-3.43-.16-5.16-.1C38.7,92.45,39.56,91.85,45.35,93.61Z"/><path class="cls-1" d="M64.49,50.85c-1.1-4.06-4.89-1.82-7.19-3.07.1-.58.86-.52,1-1.05,1.33-1.58,2.39-3.87,5-3.14,2.11.59,1.84,2.8,2.17,4.51Z"/><path class="cls-1" d="M52.33,34.76c1.71-3.33,5-3.47,8.1-4a1.9,1.9,0,0,1,.78,2.05,2.47,2.47,0,0,0-.91,2l-2,2C55.79,37.71,54.53,34.82,52.33,34.76Z"/><path class="cls-1" d="M9.2,52.81c1.94.58,3.57-.35,5.24-1.07.2,3.65-2.84,6.32-3,9.87C6.77,59.68,10,55.74,9.2,52.81Z"/><path class="cls-1" d="M36.39,6.89c1.43.25,2.68-3.3,3.7-.87,1.14,2.71-.91,4.83-3.67,5.83-1,.57-2,1.29-3.28.77a2.36,2.36,0,0,1-1.07-2.2C32.46,8,34.9,8,36.39,6.89Z"/><path class="cls-1" d="M18.3,8.54l1.75-2.77c1.32-.93,2.66-1.69,4.33-.9,2.49,3,1.77,5.58-.94,8a6.49,6.49,0,0,1-4.47-.1C17.63,11.53,17.75,10.07,18.3,8.54Z"/><path class="cls-1" d="M18.6,19.8h.79c-.22,1.92-.43,3.83-.83,7.37-2.07-4.19-4.34-5.26-7.35-4.44C12.84,19.65,15.75,19.8,18.6,19.8Z"/><path class="cls-1" d="M18.3,8.54l1.11,3.34a1.91,1.91,0,0,1,0,2.92c-.59,1-1.18,1.93-1.78,2.89C15.89,14.5,15.89,11.43,18.3,8.54Z"/><path class="cls-1" d="M28.4,2.13l3-.43c2.44.56,1.49,2.66,1.89,4.15a1.35,1.35,0,0,1,.29.72c.48,1,.06,1.63-.76,2.14-2.79.38-3.94-1.77-5.37-3.49C27.05,4,27.69,3,28.4,2.13Z"/><path class="cls-1" d="M22.4,2c1.22-.62,2-2.39,3.58-1.81.4.15.3,1.7.42,2.61a2,2,0,0,1,.66,2.14,1.82,1.82,0,0,1-2,.83C24.76,4.05,18.15,6.83,22.4,2Z"/><path class="cls-1" d="M33.25,5.85,31.36,1.7C32.07.87,33-.78,33.93.43,35.11,2,34.59,4.17,33.25,5.85Z"/><path class="cls-1" d="M22.4,2c-1.12,2.22,1.09,2.12,2,2.91l.4.57-.4.58-4.37-.24C21.73,5.05,17.88.92,22.4,2Z"/><path class="cls-1" d="M33.49,11.89l2.93,0c-.3.59-.59,1.18-.88,1.78l-3.11,1.21-.62-.45C31.26,12.81,31.74,11.93,33.49,11.89Z"/><path class="cls-1" d="M18.44,63.68,18.32,65l-2.83-1.48c.73-1.18,1.45-2.39,3-.83C19,63,19,63.35,18.44,63.68Z"/><path class="cls-1" d="M51.29,18.81c-1,.3-2,1.51-2.92.47-.65-.76.57-1.17,1.18-1.57Z"/><path class="cls-1" d="M60.31,38.74c-.27.86-.29,2.17-1.58,1.8-1-.28-.5-1.29-.23-2Z"/><path class="cls-1" d="M32.36,7.85l1.18-1.28,2.85.32-2.92,3.18c-.9.32-1.4-.13-1.71-.92A1.38,1.38,0,0,1,32.36,7.85Z"/><path class="cls-1" d="M64.47,54.45c1-.15,1.94-.46,2.78.35l-.17.3c-.46.75-.08,2-1.43,2.22-1.41-.36-2.26-1-1.38-2.59Z"/><path class="cls-1" d="M57.32,86.64a2.5,2.5,0,0,1,3.08-.92c-.39.63-.77,1.26-1.16,1.88Z"/><path class="cls-1" d="M26.39,4.82c0-.69,0-1.38,0-2.07l2-.62c0,.87,0,1.73,0,2.6A1.27,1.27,0,0,1,26.39,4.82Z"/><path class="cls-1" d="M60.3,34.78c-1.59-1.53,0-1.6.91-2A2.13,2.13,0,0,1,60.3,34.78Z"/><path class="cls-1" d="M38.38,15.83l.09-1.72,1.91.62c0,.69,0,1.38,0,2.07C39.26,17.49,38.32,17.72,38.38,15.83Z"/><path class="cls-1" d="M58.31,79.65c-1,4.56-3.32,5.47-10,4l-1-2c-1.67,1-2.23-2.4-4-1h0c-.94.63-2,1.09-2,2.54.11,2.62-1.95,2.09-3.46,2.28-2.38.29-2.76-1.14-2.54-3-.19-1.51,0-3.19,1.05-4.09,3.48-3,1.77-4.83-1.05-6.66-2.26-.56-3-3-5-4-3.32-.07-1.68-2.26-1.61-3.77a4.57,4.57,0,0,1,.74-1.33,4.09,4.09,0,0,1,1.91-1.15c1.28-.05,2,.86,2.84,1.62,5,4.49,6.17,4.37,9.93-1a9.68,9.68,0,0,1,2.89.2c1.95.71,2.13,2.07,1.77,4-.58,3.09,1.21,3.16,3.09,1.8,2.14-1.55,4.12-2.73,6.72-1.15,1,2.07,1.81,4.17,0,6.23-.46,1.75-1.73,3.11-2.32,4.75A5.7,5.7,0,0,1,58.31,79.65Z"/><path class="cls-1" d="M36.37,81.64c.78,2.33,1.78,4,3.72.83a4,4,0,0,1,3.26-1.82c-.64,1.5.42,3,.15,4.39-.34,1.81-.58,4.59-3.67,2.25-2-1.49-3.47-.11-4.9,1-2,1.5-3.88,3.15-6.54,3.37l-.72,0c-1.4-.87-1.32-1.87-.27-3,1.11-3.72,6.75-3.48,7-8C35.63,79.8,35.8,81.11,36.37,81.64Z"/><path class="cls-1" d="M36.37,81.64l-2-1c.95-2.92,2.23-5.8,1-9,2.31-.33,4.43-.61,5.48,2.39,1,2.75-.57,3.75-2.44,5A10.69,10.69,0,0,0,36.37,81.64Z"/><path class="cls-1" d="M18.42,69.67l2-3c1.39,1.07,2.31-1.79,3.74-.46a2.55,2.55,0,0,1,.65,1.26c.12,2.4.34,4.79.59,7.18C20.6,76.46,19.8,72.66,18.42,69.67Z"/><path class="cls-1" d="M30.39,63.68c0,1.34,0,2.68,0,4l-1.87,2a2.75,2.75,0,0,1-2.4-1.22,20.76,20.76,0,0,1-2.13-3,3.6,3.6,0,0,1-.79-4.25,8.53,8.53,0,0,1,2.93-2.67C29.6,58.59,28.8,62.15,30.39,63.68Z"/><path class="cls-1" d="M25.4,74.66c-1.77-2-2-4.47-1.95-7a2,2,0,0,1,1.93-.7c1.74,1.07,1.34,3.5,2.95,4.65C28.11,73.36,26.82,74.06,25.4,74.66Z"/><path class="cls-1" d="M28.39,91.62c.59,3.91-1.48,5.16-5,5l1-2C25.58,93.4,25.56,90.61,28.39,91.62Z"/><path class="cls-1" d="M28.39,91.62l-4,3c.31-2.34.66-4.66,3-6Z"/><path class="cls-1" d="M28.33,71.61c-2.87.08-2.54-2.21-2.93-4,.62-.73,1.28-.48,1.93-.05l1.2,2.14C28.46,70.36,28.39,71,28.33,71.61Z"/><path class="cls-1" d="M43.35,80.64c2.32-3.59,2.72.42,4,1C45.46,83.5,44.61,81.25,43.35,80.64Z"/><path class="cls-1" d="M49.34,46.73h-1c-1.14.91-2.4.53-3.64.33a8.5,8.5,0,0,1-3.54-2.88,27.85,27.85,0,0,1-.27-5.55c.29-2,1.79-2.39,3.48-2.45a30,30,0,0,1,5.13,1.17,1,1,0,0,1-.16,1.34c-1.19,2.56-.19,4.81,1,7C50.3,46.36,49.63,46.35,49.34,46.73Z"/><path class="cls-1" d="M49.34,46.73l1-1,2-1a1.28,1.28,0,0,1,2,0l4,2-1,1.05Z"/><path class="cls-1" d="M49.34,38.7v-.94c-1.91-.9-2.39-2-.44-3.39a1.31,1.31,0,0,1,1.38.48l1,.85C52,37.57,50.83,38.24,49.34,38.7Z"/><path class="cls-1" d="M54.32,44.74h-2c-.11-.75-1-1.92-.11-2.16C53.67,42.16,53.83,43.77,54.32,44.74Z"/><path class="cls-1" d="M48.34,91.62c1.25-4.8,5.15-4.82,9-5-.35.92-.75,1.84-1.06,2.78C54.34,95.29,53.81,95.44,48.34,91.62Z"/><path class="cls-1" d="M15.48,46.74h-1c-.33-.67-.67-1.33-1-2-1,.24-1.49-.27-1.41-1.21.07-.76.68-.93,1.37-.8,2.71-3,.21-3.91-2-5-3.82-2-1.21-4,0-6v-3c1.28,1.62,2.16,4.22,5,2a2.45,2.45,0,0,1,2.79.45c-.61,4.91.56,10-1.72,14.76C16.92,46.49,16.14,46.45,15.48,46.74Z"/><path class="cls-1" d="M11.45,31.75c-.51,2-.92,4,0,6l-2.38.43c-1.22.22-2.56,1.18-3.62-.07s.35-2,.64-3.07a19.86,19.86,0,0,0,.4-3.29C8.13,32.52,9.79,33.1,11.45,31.75Z"/><path class="cls-1" d="M13.4,42.73c0,.67,0,1.34,0,2-2.34,2.48-4,1.49-6.1-1.41C9.78,43.39,11.39,42,13.4,42.73Z"/><path class="cls-1" d="M22.42,32.73l4-3.94a1.78,1.78,0,0,1,.83-1.05c1.37-.38,2.71.38,4.07.09a18.22,18.22,0,0,1,2-.43,4.29,4.29,0,0,1,4.32,2.09c1.21,5.25,2.74,10.5.14,15.79-.68,1.12-.82,2.56-2,3.4-1.16.49-2.12-.07-3.08-.59a4.16,4.16,0,0,1-1.72-1.55c.25-3.3-3-7.52-6.92-8.8-1.1-.36-2.22-.47-2.84-1.61a2.8,2.8,0,0,1,.39-3Z"/><path class="cls-1" d="M27.4,28.78h-1c-1.25-2.55-2-5,1-7,1.6-3.33,4.48-4.61,7.94-4.95l1,1c3.15-.15,5.6.39,3.73,4.38-1,2,1.29,4.32-.69,6.16-1.61,2.19-4.64-1.68-6,1.41l-2,0C30.05,29.47,29,28,27.4,28.78Z"/><path class="cls-1" d="M16.42,45.71c.93-4.61-.85-9.6,2-13.93.2-1.14,1.47-1.19,2-2,.67,1,1.33,1.95,2,2.93l0,.06A3.33,3.33,0,0,0,21,36.41a46.62,46.62,0,0,1,1.18,4.8C22.64,44.37,20.33,46.09,16.42,45.71Z"/><path class="cls-1" d="M35.35,16.85,27.41,21.8c0-.34,0-.67,0-1C29.29,18,31.52,15.78,35.35,16.85Z"/><path class="cls-1" d="M20.42,29.8l-2,2-2-1C17.51,29.43,18.94,29.51,20.42,29.8Z"/><path class="cls-1" d="M38.36,27.78c-.68-2.13-2-4.12-.25-6.48,1.35-1.85-1.18-2.29-1.74-3.48l2-2,2,1c6.13.72,1.93,4.42,2,6.9.9,1.07,2.09,2,2.08,3.59a4.15,4.15,0,0,1-3,2.86c-1.18.17-2.36.37-3.25-.74A1.34,1.34,0,0,1,38.36,27.78Z"/><path class="cls-1" d="M50.28,34.85l-1,0a2.57,2.57,0,0,1-2.78-.23,13.68,13.68,0,0,1-1.16-10.8c3.25-1.37,4,2.07,5.95,3.12C55,28.85,52,30.32,51,32A10.84,10.84,0,0,0,50.28,34.85Z"/><path class="cls-1" d="M45.35,23.79c4.33,2.61.85,6.8,2,10A1.58,1.58,0,0,1,47,35.76c-1.56.39-3.36,1.12-4.44-.54a5.08,5.08,0,0,1,.05-5.56c.56-.91,1.87-1.54.78-2.87l-.93-3.09Z"/><path class="cls-1" d="M58.31,79.65c-2.61-.08-4.12,2.54-7.05,2.81.16-2.13,1.54-3,3-3.81s2.56-4.62,5-1Z"/><path class="cls-1" d="M59.31,77.65c-1.83-.49-3.35.6-5,1a12.68,12.68,0,0,1,3-5c.95-.25,1.49.33,2,1,0,.33,0,.66,0,1Z"/><path class="cls-1" d="M59.29,74.66l-2-1a11.56,11.56,0,0,0,0-6,2.86,2.86,0,0,1-.79-1.6c1-3.17,2.69-3.8,5.26-1.54,1.72,2.12-.23,5,1.51,7.14v1A5.65,5.65,0,0,0,59.29,74.66Z"/><path class="cls-1" d="M64.3,63.68c2.24,1.19,3.8-1.72,6-1-.44.68-1.29,1.38-1.26,2,.25,5.28-2.32,4.86-5.71,3l-.5-.51C62.73,65.77,62.41,64.25,64.3,63.68Z"/><path class="cls-1" d="M63.29,71.66a8.86,8.86,0,0,1-2-6,1.16,1.16,0,0,1,1.16-.32c.89.54.26,1.64.83,2.3v0C63.3,69,63.3,70.34,63.29,71.66Z"/><path class="cls-1" d="M19.41,14.8V11.88l3-1.07c.38.31.9.7,1.29.41,5.4-4.13,7.59-3.24,8.64,3.55l.07.07Z"/><path class="cls-1" d="M30.39,63.68c-2.09-.56-2.93-2.37-4-4A19.93,19.93,0,0,1,23.57,59c-.68-.29-1.38-.56-2.06-.87-1.28-.84-1-2.17-1.09-3.41l-2-4a2.65,2.65,0,0,1,.36-2.93,16.43,16.43,0,0,1,7.08-1.49c4.08,0,5.75,1.06,4.92,4.8-.65,2.92-.89,5.22,1.25,7.5.57.61.06,1.58-.21,2.36a21.86,21.86,0,0,1-1.44,2.7Z"/><path class="cls-1" d="M24.41,61.7l1,4c.32,2.28-1.25.79-2,1-1,.79-2,1.67-3,0,.5-1.77-.86-2.3-2-3v-1c1.24-.22,2.31-.51,1-2-.3-2,.78-2.52,2.48-2.45a4.28,4.28,0,0,1,1.61.47C24.72,59.44,24.51,60.58,24.41,61.7Z"/><path class="cls-1" d="M22.41,59.7l-3,1c-1.08-2.23-1.36-4.33,1-6,1.68-.37,2.57.47,3,2C24,58,23.93,59.1,22.41,59.7Z"/><path class="cls-1" d="M19.43,48.73c-.34.67-.67,1.35-1,2l-4,1c.68-1.32,1.35-2.64,2-4a1.71,1.71,0,0,1,2.44-.24A2,2,0,0,1,19.43,48.73Z"/><path class="cls-1" d="M35.38,47.73l1-3c.84-1.33,1.8-2.53,3.36-.91,1,1,2.42,1.6,3.38,2.7,1,.72,2.24.66,3.39.9,6,1.93,6.78,3.39,3.83,7.28.41,3.12,4.21,4.55,4,8A2.05,2.05,0,0,1,55,64.15c-2.88,4.58-4.65,1-6.65-.9a6.7,6.7,0,0,1-4.71-3.63c-2.17-1.72-4.86-2.29-7.33-3.33-2.69-.6-1.89-2.5-1.57-4.22C34.83,50.61,34.26,49,35.38,47.73Z"/><path class="cls-1" d="M54.32,63.68v-1c2.13-1.38,3.34-3.54,4.72-5.56s2.67-3.39,5.23-2.4l2,2a2.26,2.26,0,0,1,.05,3l-1,2c-1.7-.93-2,.14-2,1.48,0,.95.22,2-1,2.51h-1a3.13,3.13,0,0,0-4,1C54.67,67.3,54.55,65.44,54.32,63.68Z"/><path class="cls-1" d="M50.34,54.7c1.2-4.38-.78-6.1-5-6a1,1,0,0,1-.06-1.42c1.08-.74,2-.24,2.93.34,3.12,1.52,7.23,1.27,9.08,5.06C56.47,58.61,52.66,54,50.34,54.7Z"/><path class="cls-1" d="M62.28,65.69c.06-1.68-.9-3.59.75-4.91,1-.79,1.71.09,2.26.92l-1,2c-.34,1.33-.67,2.66-1,4Z"/><path class="cls-1" d="M66.29,59.67c0-1,0-2-.05-3l.84-1.62A7.05,7.05,0,0,1,66.29,59.67Z"/><path class="cls-1" d="M48.23,47.66l-2.85.19c-.86.37-1.25-.08-1.46-.84.12-.84.81-1,1.45-1.25l3,1C48.31,47.05,48.27,47.35,48.23,47.66Z"/><path class="cls-1" d="M18.43,48.71l-2-1-1-1c.32-.34.63-.68.94-1,4.59-2.24,1.62-6.74,3-10a2,2,0,0,1,3,0c2.19-3.1,4.43-3.07,6.21.22,1.66,3.07,6.9,4.83,3.79,9.75l-.37.62C27.2,45.46,23,48,18.43,48.71Z"/><path class="cls-1" d="M32.35,14.77c-1.87-4.94-6-4.32-9.93-4,1.75-1.15,1.37-3.19,2-4.8V5.85c3.51-1.19,5.7,1,7.93,3.1l1.13,1.12c0,.61,0,1.21,0,1.82C33.11,12.85,32.73,13.81,32.35,14.77Z"/><path class="cls-1" d="M32.34,9l-7.93-3.1c0-.33,0-.66,0-1l2,0,2.05-.09,3.92,3.12C32.35,8.22,32.34,8.59,32.34,9Z"/><path class="cls-1" d="M54.32,63.68c1,1,2,2,3,3,0,.33,0,.67,0,1-2.89,1.58-5,4.47-8.48,5-1.24.2-2.58,1.44-3.72.22s-.59-2.86,0-4.25c.66-1.7,1.51-3.32,2.28-5-.86-1.25.45-1.43,1-2C50.28,62.48,51.91,64.27,54.32,63.68Z"/><path class="cls-1" d="M36.37,51.72c-.14,1.16-.21,2.29,1,3,2.07,1.94.67,3.83-.07,5.73a2.51,2.51,0,0,1-.8,1.29c-1.57,1-3.42.59-5.11,1l-1,1v-3c-1.32-4.33.5-8.59.25-12.89-.07-1.31,1-1.48,1.74-2l0,0,1,1C34.45,48.36,35.3,50.1,36.37,51.72Z"/><path class="cls-1" d="M35.37,60.7c0-.33,0-.66,0-1,1.15-1.84,2.53-2.35,4.81-1.74,1.54.41,3.48.81,5.14-.25,2.87-.07.78,3.56,3,4-.33.67-.65,1.33-1,2h-3C42,66,39.47,67.09,36.25,65,34.28,63.73,33.92,62.5,35.37,60.7Z"/><path class="cls-1" d="M35.37,60.7c1.44,5.66,5.86,2.37,9,3-2.14,5.63-4.42,6.29-8.89,2.57-1.39-1.16-2.72-2.38-4.07-3.57C32.21,61,33.88,61.05,35.37,60.7Z"/><path class="cls-1" d="M23.42,66.68l2-1,1.94,1.91-1.94.05H23.45Z"/><path class="cls-1" d="M24.41,61.7l-1-2c.19-.74.23-1.57,1-2l2,2Z"/><path class="cls-1" d="M43.34,26.79c3.4-.38,2.1,1.39,1.22,2.8-1.57,2.55-1.22,4.33,1.86,5.18,1.27,1.6.61,2.48-1.11,3a4,4,0,0,0-3,2.12c.31,1.62-.69,1.82-1.92,1.77-2.94-4.24-2.64-8.29,1-12.82Z"/><path class="cls-1" d="M45.31,37.73c.37-1,.74-2,1.1-3l1-.94,1.89,1c0,1,0,2,.05,2.94C48,38.59,46.64,39.38,45.31,37.73Z"/><path class="cls-1" d="M45.37,45.76l-1,1a2.36,2.36,0,0,1-3.07.94c-3.47-1.25-3.13-2.88-.47-4.75a1.75,1.75,0,0,1,1.5.76Z"/><path class="cls-1" d="M42.36,43.73h-1c-1.37-.66-2.34-1.43-.86-2.93l1.82-.95C43.2,41.12,42.88,42.43,42.36,43.73Z"/><path class="cls-1" d="M40.46,40.79c.29,1,.57,2,.86,2.93-1.18,1-1.62,2,.06,3,1.49,1,2.93,2,0,3-1.95-1.37-2.23-4.42-5-5,1.91-5-.54-10,0-15-.08-1.83.84-1.68,2-1l2.94,0c.37,2.39.77,4.76-.8,7C39.37,37.37,39.65,39.1,40.46,40.79Z"/><path class="cls-1" d="M27.4,28.78c.24-1.2,0-3,1.82-2.83,2.1.23,1.92,2.27,2.17,3.84C29.75,30.68,28.47,30.12,27.4,28.78Z"/><path class="cls-1" d="M38.39,28.76l-2,1h-3c.52-3.52,2.91-2.36,5-2Z"/><path class="cls-1" d="M36.37,51.72a6.29,6.29,0,0,1-3-5l2,1C35.71,49.06,36,50.39,36.37,51.72Z"/><path class="cls-1" d="M22.39,35.75h-3a3.38,3.38,0,0,1,3-3Z"/><path class="cls-1" d="M32.37,45.76a36.59,36.59,0,0,1-2,14.93c-1.35-2.9-3.18-5.47-1.9-9.18s-1.77-3.46-4.12-3.17c-1.65.21-3.13,2.17-4.93.39l-1,0c2.09-1.22,4.21-2.39,6.26-3.66C27.46,43.35,30,44,32.37,45.76Z"/><path class="cls-1" d="M24.44,57.72l-1,2-1,0,1-3Z"/><path class="cls-1" d="M45.34,57.72c-2.59,4.3-6.52,1.88-10,2l2-5C41,53.09,42.48,57.26,45.34,57.72Z"/><path class="cls-1" d="M41.37,49.72a3.59,3.59,0,0,0,0-3l3,.05c.33.35.65.71,1,1.07,0,.3,0,.59,0,.89C44.2,49.75,43,50.63,41.37,49.72Z"/><path class="cls-2" d="M84.06,50.53h9.41v13h.23l12.41-13h10.35l-12.6,12.74,14.91,19.19H108.45L98.33,69,93.47,73.9v8.56H84.06Z"/><path class="cls-2" d="M121.49,73.24V58.15h9.39V72.32c0,3.5,1.23,4.59,3.94,4.59,2.36,0,3.8-.76,5.63-2.67V58.15h9.39V82.46h-7.66l-.67-3.37h-.24a13.83,13.83,0,0,1-10,4C124.43,83.05,121.49,79.32,121.49,73.24Z"/><path class="cls-2" d="M158.07,58.15h7.66l.68,4.25h.23a11.18,11.18,0,0,1,9-4.83,11,11,0,0,1,3.78.49l-1.57,6.21a16.75,16.75,0,0,0-3.42-.39,7.78,7.78,0,0,0-7,4.49V82.46h-9.39Z"/><path class="cls-2" d="M181,70.32c0-8.09,7.41-12.75,15.43-12.75s15.44,4.66,15.44,12.75-7.42,12.73-15.44,12.73S181,78.38,181,70.32Zm21.25,0c0-4.21-1.93-6.94-5.82-6.94s-5.81,2.73-5.81,6.94,1.93,6.92,5.81,6.92S202.27,74.52,202.27,70.32Z"/></g></g></svg>